<svg width="32" height="27" viewBox="0 0 38 38" fill="none" xmlns="http://www.w3.org/2000/svg">
    <path fill-rule="evenodd" clip-rule="evenodd"
          d="M26.028 2.81908C25.1161 2.38453 24.1186 2.15897 23.1084 2.15897H8.59776C5.25457 2.15897 2.40973 4.59369 1.89347 7.89643L0.194603 18.7625C-0.320026 22.0549 2.2257 25.0296 5.55803 25.0296H14.471L14.471 31.4288C14.471 33.8652 16.4461 35.8402 18.8824 35.8402C20.4792 35.8402 21.9514 34.9773 22.7315 33.584L28.37 23.5138C28.7103 22.9061 28.889 22.2212 28.889 21.5247L28.889 6.75236C28.889 5.18269 27.9864 3.75253 26.5693 3.07721L26.028 2.81908ZM35.1673 23.0164C35.8845 23.0164 36.5724 22.7315 37.0796 22.2244C37.5867 21.7172 37.8717 21.0293 37.8717 20.3121L37.8717 6.43506C37.8717 5.71767 37.5867 5.02987 37.0796 4.52257C36.5724 4.01554 35.8845 3.73054 35.1673 3.73054L33.8194 3.73109C33.0701 3.73136 32.4629 4.33909 32.4629 5.08823L32.4629 21.6599C32.4629 22.0199 32.606 22.3652 32.8606 22.6197C33.1152 22.8743 33.4606 23.0172 33.8206 23.017L35.1673 23.0164Z"
          fill="#C61D1D"/>
</svg>
