<svg width="38" height="38" viewBox="0 0 38 38" fill="none" xmlns="http://www.w3.org/2000/svg">
<path fill-rule="evenodd" clip-rule="evenodd" d="M22.3526 3.63254C21.4976 0.122486 16.5024 0.122486 15.6474 3.63254C15.5197 4.15998 15.2694 4.64984 14.9166 5.06224C14.5639 5.47464 14.1188 5.79793 13.6175 6.00581C13.1162 6.21369 12.5729 6.30028 12.0318 6.25853C11.4908 6.21679 10.9672 6.04789 10.5037 5.76557C7.41664 3.88455 3.88403 7.4171 5.76509 10.5041C6.98012 12.4977 5.90234 15.0987 3.63427 15.65C0.12191 16.5027 0.12191 21.5001 3.63427 22.3506C4.16186 22.4784 4.65181 22.729 5.06421 23.082C5.47662 23.435 5.79982 23.8804 6.00751 24.382C6.21519 24.8835 6.30148 25.427 6.25936 25.9682C6.21723 26.5094 6.04788 27.033 5.76509 27.4964C3.88403 30.5835 7.41664 34.116 10.5037 32.235C10.9671 31.9522 11.4907 31.7828 12.0319 31.7407C12.5732 31.6986 13.1167 31.7849 13.6182 31.9926C14.1198 32.2002 14.5652 32.5234 14.9182 32.9358C15.2712 33.3482 15.5218 33.8382 15.6496 34.3658C16.5024 37.8781 21.4998 37.8781 22.3504 34.3658C22.4786 33.8385 22.7295 33.3489 23.0825 32.9367C23.4356 32.5246 23.881 32.2016 24.3824 31.994C24.8838 31.7864 25.4271 31.7 25.9682 31.7419C26.5092 31.7838 27.0328 31.9527 27.4963 32.235C30.5834 34.116 34.116 30.5835 32.2349 27.4964C31.9526 27.0329 31.7837 26.5094 31.7418 25.9683C31.6999 25.4273 31.7863 24.884 31.9939 24.3826C32.2016 23.8812 32.5246 23.4358 32.9367 23.0828C33.3488 22.7297 33.8384 22.4788 34.3657 22.3506C37.8781 21.4978 37.8781 16.5005 34.3657 15.65C33.8381 15.5222 33.3482 15.2716 32.9358 14.9186C32.5234 14.5656 32.2002 14.1201 31.9925 13.6186C31.7848 13.1171 31.6985 12.5735 31.7406 12.0323C31.7828 11.4911 31.9521 10.9675 32.2349 10.5041C34.116 7.4171 30.5834 3.88455 27.4963 5.76557C27.0329 6.04836 26.5093 6.21771 25.9681 6.25984C25.4268 6.30196 24.8833 6.21567 24.3818 6.00799C23.8802 5.80031 23.4348 5.47711 23.0818 5.06471C22.7288 4.65231 22.4782 4.16238 22.3504 3.63479L22.3526 3.63254Z" stroke="black" stroke-width="2"/>
<path d="M23 19C23 21.2091 21.2091 23 19 23C16.7909 23 15 21.2091 15 19C15 16.7909 16.7909 15 19 15C21.2091 15 23 16.7909 23 19Z" stroke="black" stroke-width="2"/>
</svg>
