<svg width="39" height="39" viewBox="0 0 39 39" fill="none" xmlns="http://www.w3.org/2000/svg">
<path d="M4.07813 14.0937C3.52584 14.0937 3.07813 14.5415 3.07813 15.0937C3.07813 15.646 3.52584 16.0937 4.07813 16.0937V14.0937ZM34.9219 16.0937C35.4742 16.0937 35.9219 15.646 35.9219 15.0937C35.9219 14.5415 35.4742 14.0937 34.9219 14.0937V16.0937ZM4.26315 24.0076C3.71086 24.0076 3.26315 24.4553 3.26315 25.0076C3.26315 25.5599 3.71086 26.0076 4.26315 26.0076V24.0076ZM35.1069 26.0076C35.6592 26.0076 36.1069 25.5599 36.1069 25.0076C36.1069 24.4553 35.6592 24.0076 35.1069 24.0076V26.0076ZM36.125 19.5C36.125 28.6817 28.6817 36.125 19.5 36.125V38.125C29.7863 38.125 38.125 29.7863 38.125 19.5H36.125ZM19.5 36.125C10.3183 36.125 2.875 28.6817 2.875 19.5H0.875C0.875 29.7863 9.2137 38.125 19.5 38.125V36.125ZM2.875 19.5C2.875 10.3183 10.3183 2.875 19.5 2.875V0.875C9.2137 0.875 0.875 9.2137 0.875 19.5H2.875ZM19.5 2.875C28.6817 2.875 36.125 10.3183 36.125 19.5H38.125C38.125 9.2137 29.7863 0.875 19.5 0.875V2.875ZM19.5 36.125C18.7662 36.125 17.9883 35.7893 17.1936 35.021C16.3941 34.248 15.6284 33.0813 14.9637 31.5619C13.6356 28.5262 12.7891 24.2624 12.7891 19.5H10.7891C10.7891 24.4716 11.6687 29.0203 13.1314 32.3636C13.8621 34.0337 14.758 35.4481 15.8035 36.4589C16.8538 37.4743 18.1045 38.125 19.5 38.125V36.125ZM12.7891 19.5C12.7891 14.7376 13.6356 10.4738 14.9637 7.43806C15.6284 5.91871 16.3941 4.75196 17.1936 3.97901C17.9883 3.21071 18.7662 2.875 19.5 2.875V0.875C18.1045 0.875 16.8538 1.52566 15.8035 2.54111C14.758 3.55191 13.8621 4.96628 13.1314 6.63642C11.6687 9.97969 10.7891 14.5284 10.7891 19.5H12.7891ZM19.5 38.125C20.8955 38.125 22.1462 37.4743 23.1965 36.4589C24.242 35.4481 25.1379 34.0337 25.8686 32.3636C27.3313 29.0203 28.2109 24.4716 28.2109 19.5H26.2109C26.2109 24.2624 25.3644 28.5262 24.0363 31.5619C23.3716 33.0813 22.6059 34.248 21.8064 35.021C21.0117 35.7893 20.2338 36.125 19.5 36.125V38.125ZM28.2109 19.5C28.2109 14.5284 27.3313 9.97969 25.8686 6.63642C25.1379 4.96628 24.242 3.55191 23.1965 2.54111C22.1462 1.52566 20.8955 0.875 19.5 0.875V2.875C20.2338 2.875 21.0117 3.21071 21.8064 3.97901C22.6059 4.75196 23.3716 5.91871 24.0363 7.43806C25.3644 10.4738 26.2109 14.7376 26.2109 19.5H28.2109ZM4.07813 16.0937H34.9219V14.0937H4.07813V16.0937ZM4.26315 26.0076H35.1069V24.0076H4.26315V26.0076Z" fill="white"/>
</svg>
