<svg width="32" height="27" viewBox="0 0 38 34" fill="none" xmlns="http://www.w3.org/2000/svg">
    <path fill-rule="evenodd" clip-rule="evenodd"
          d="M11.972 33.1809C12.8839 33.6155 13.8813 33.841 14.8915 33.841H29.4022C32.7454 33.841 35.5902 31.4063 36.1065 28.1036L37.8054 17.2375C38.32 13.9451 35.7743 10.9704 32.4419 10.9704H23.5289V4.57118C23.5289 2.13483 21.5539 0.15979 19.1175 0.15979C17.5207 0.15979 16.0485 1.02271 15.2684 2.41601L9.62994 12.4862C9.28965 13.0939 9.11097 13.7788 9.11097 14.4753V29.2476C9.11097 30.8173 10.0135 32.2475 11.4307 32.9228L11.972 33.1809ZM2.83269 12.9836C2.11544 12.9836 1.42757 13.2685 0.920396 13.7756C0.413223 14.2828 0.128296 14.9707 0.128296 15.6879L0.128297 29.5649C0.128297 30.2823 0.413223 30.9701 0.920396 31.4774C1.42757 31.9845 2.11544 32.2695 2.83269 32.2695L4.18053 32.2689C4.92983 32.2686 5.53707 31.6609 5.53707 30.9118V14.3401C5.53707 13.9801 5.394 13.6348 5.13938 13.3803C4.88472 13.1257 4.53938 12.9828 4.17936 12.983L2.83269 12.9836Z"
          fill="#5DB41C"/>
</svg>
